<svg height="480pt" viewBox="-48 0 480 480" width="480pt" xmlns="http://www.w3.org/2000/svg"><path d="m296 424h-240v16c0 17.671875 14.328125 32 32 32h256c17.671875 0 32-14.328125 32-32v-352c0-17.671875-14.328125-32-32-32h-16v336c0 17.671875-14.328125 32-32 32zm0 0" fill="#bddbff"/><path d="m256 48 24 24v-64h-48v64zm0 0" fill="#bddbff"/><path d="m56 80v64h64v-64zm0 0" fill="#bddbff"/><path d="m56 192v64h64v-64zm0 0" fill="#bddbff"/><path d="m56 296h64v64h-64zm0 0" fill="#bddbff"/><g fill="#3d9ae2"><path d="m344 48h-8v-8c-.027344-22.082031-17.917969-39.9726562-40-40h-256c-22.082031.0273438-39.9726562 17.917969-40 40v352c.0273438 22.082031 17.917969 39.972656 40 40h8v8c.027344 22.082031 17.917969 39.972656 40 40h256c22.082031-.027344 39.972656-17.917969 40-40v-352c-.027344-22.082031-17.917969-39.972656-40-40zm-72-32v36.6875l-10.34375-10.34375c-3.125-3.121094-8.1875-3.121094-11.3125 0l-10.34375 10.34375v-36.6875zm-256 376v-352c0-13.253906 10.746094-24 24-24h184v56c0 3.234375 1.949219 6.152344 4.9375 7.390625s6.429688.550781 8.71875-1.734375l18.34375-18.34375 18.34375 18.34375c2.289062 2.285156 5.730469 2.972656 8.71875 1.734375s4.9375-4.15625 4.9375-7.390625v-56h8c13.253906 0 24 10.746094 24 24v352c0 13.253906-10.746094 24-24 24h-256c-13.253906 0-24-10.746094-24-24zm352 48c0 13.253906-10.746094 24-24 24h-256c-13.253906 0-24-10.746094-24-24v-8h232c22.082031-.027344 39.972656-17.917969 40-40v-328h8c13.253906 0 24 10.746094 24 24zm0 0"/><path d="m127.449219 77.238281c-1.152344-3.125-4.117188-5.214843-7.449219-5.238281h-64c-4.417969 0-8 3.582031-8 8v64c0 4.417969 3.582031 8 8 8h64c4.417969 0 8-3.582031 8-8v-44.6875l21.65625-21.65625-11.3125-11.3125zm-15.449219 58.761719h-48v-48h48v4.6875l-16 16-10.34375-10.34375-11.3125 11.3125 16 16c3.125 3.121094 8.1875 3.121094 11.3125 0l10.34375-10.34375zm0 0"/><path d="m138.34375 178.34375-10.894531 10.894531c-1.152344-3.125-4.117188-5.214843-7.449219-5.238281h-64c-4.417969 0-8 3.582031-8 8v64c0 4.417969 3.582031 8 8 8h64c4.417969 0 8-3.582031 8-8v-44.6875l21.65625-21.65625zm-26.34375 69.65625h-48v-48h48v4.6875l-16 16-10.34375-10.34375-11.3125 11.3125 16 16c3.125 3.121094 8.1875 3.121094 11.3125 0l10.34375-10.34375zm0 0"/><path d="m120 288h-64c-4.417969 0-8 3.582031-8 8v64c0 4.417969 3.582031 8 8 8h64c4.417969 0 8-3.582031 8-8v-64c0-4.417969-3.582031-8-8-8zm-8 64h-48v-48h48zm0 0"/><path d="m160 120h80v16h-80zm0 0"/><path d="m160 88h48v16h-48zm0 0"/><path d="m160 232h80v16h-80zm0 0"/><path d="m160 200h48v16h-48zm0 0"/><path d="m160 336h80v16h-80zm0 0"/><path d="m160 304h48v16h-48zm0 0"/><path d="m224 304h16v16h-16zm0 0"/></g></svg>